<svg width="389" height="389" viewBox="0 0 389 389" fill="none" xmlns="http://www.w3.org/2000/svg">
<path d="M194.5 0.799988C87.6 0.799988 0.599976 87.8 0.599976 194.7C0.599976 301.6 87.6 388.6 194.5 388.6C301.4 388.6 388.4 301.6 388.4 194.7C388.4 87.7 301.4 0.799988 194.5 0.799988ZM194.5 281.4C146.7 281.4 107.7 242.5 107.7 194.6C107.7 146.7 146.6 107.8 194.5 107.8C242.4 107.8 281.3 146.7 281.3 194.6C281.3 242.5 242.4 281.4 194.5 281.4Z" fill="#FFA655"/>
<path d="M375.1 136C369.2 117.7 345.1 108.6 334 93.4C322.8 78 321.4 52.3 306.1 41.2C290.9 30.1 266.1 36.7 247.8 30.7C230.2 25 214 4.89996 194.5 4.89996C175 4.89996 158.9 25 141.2 30.7C122.9 36.6 98.1 30.1 82.9 41.2C67.5 52.4 66.2 78.1 55 93.5C43.9 108.7 19.8 117.9 13.9 136.1C8.19999 153.7 22 175.3 22 194.8C22 214.3 8.09999 235.8 13.9 253.5C19.8 271.8 43.9 280.9 55 296.1C66.2 311.5 67.6 337.2 82.9 348.3C98.1 359.4 122.9 352.8 141.2 358.8C158.8 364.5 175 384.6 194.5 384.6C214 384.6 230.1 364.5 247.8 358.8C266.1 352.9 290.9 359.4 306.1 348.3C321.5 337.1 322.8 311.4 334 296C345.1 280.8 369.2 271.6 375.1 253.4C380.8 235.8 366.9 214.2 366.9 194.7C367 175.1 380.9 153.6 375.1 136ZM194.5 264.7C155.9 264.7 124.4 233.3 124.4 194.6C124.4 156 155.8 124.5 194.5 124.5C233.2 124.5 264.6 155.9 264.6 194.6C264.6 233.3 233.1 264.7 194.5 264.7Z" fill="#57A7FF"/>
<path d="M194.5 124.6C155.9 124.6 124.4 156 124.4 194.7C124.4 233.3 155.8 264.8 194.5 264.8C233.1 264.8 264.6 233.4 264.6 194.7C264.6 156 233.2 124.6 194.5 124.6ZM194.5 258.9C159.1 258.9 130.2 230.1 130.2 194.6C130.2 159.2 159 130.3 194.5 130.3C229.9 130.3 258.8 159.1 258.8 194.6C258.8 230.1 229.9 258.9 194.5 258.9Z" fill="#FFA655"/>
<path d="M375.1 136C369.2 117.7 345.1 108.6 334 93.4C322.8 78 321.5 52.3 306.1 41.1C295.1 33.1 279 34.3 264.1 33.3C270.5 45.7 273.5 61.5 281.3 72.2C292.4 87.4 316.5 96.6 322.4 114.8C328.1 132.4 314.2 154 314.2 173.5C314.2 193 328.1 214.5 322.4 232.2C316.5 250.5 292.4 259.6 281.3 274.8C270.1 290.2 268.7 315.9 253.4 327.1C238.2 338.2 213.4 331.6 195.1 337.6C179.9 342.6 165.8 358.2 149.6 362.4C164.1 370.3 178.1 384.5 194.5 384.5C214 384.5 230.1 364.4 247.8 358.7C266.1 352.8 290.9 359.3 306.1 348.2C321.5 337 322.8 311.3 334 295.9C345.1 280.7 369.2 271.5 375.1 253.3C380.8 235.7 366.9 214.1 366.9 194.6C367 175.2 380.9 153.6 375.1 136Z" fill="#238BE8"/>
<path d="M194.5 107.9C146.7 107.9 107.7 146.8 107.7 194.7C107.7 242.5 146.6 281.5 194.5 281.5C242.3 281.5 281.3 242.6 281.3 194.7C281.3 146.8 242.4 107.9 194.5 107.9ZM194.5 264.7C155.9 264.7 124.4 233.3 124.4 194.6C124.4 156 155.8 124.5 194.5 124.5C233.1 124.5 264.6 155.9 264.6 194.6C264.6 233.3 233.2 264.7 194.5 264.7Z" fill="#238BE8"/>
<path d="M295.8 66.2C290.2 58.4 276.1 62.6 244.5 75.7C223.5 84.4 195 97.5 159.6 114.5C100.2 143.1 42.4 173 39.2 174.7C37.3 175.6 35.6 176.4 34 177.1C36.6 174.7 39.4 172.2 42.2 169.9L197.2 50.4C204.4 45.3 214.1 38.2 209.7 30.1C205.9 23.2 197.2 24.4 179.2 29.8C168.3 33 153.4 38.1 135 44.9C103.9 56.4 72.9 69.1 72.6 69.3C68.8 70.9 67 75.2 68.5 79C70.1 82.8 74.4 84.6 78.2 83.1C115 68 155.3 52.8 179.5 45.2L33 158.1C32.9 158.2 32.8 158.2 32.8 158.3C32.5 158.5 26.1 163.9 20 170C11.4 178.5 4.00002 186.7 8.70002 193.9C13.7 201.6 24.6 198.2 45.9 188C46 188 46 187.9 46.1 187.9C46.6 187.6 101.3 159.3 159.4 131.2C218.4 102.6 250.4 89 267.6 82.6C254.7 91.6 231.9 107.4 205.7 125.5C212.1 126.5 218.2 128.4 223.9 131C260.1 106 287.2 87.1 288.6 85.8C292.6 81.8 301.2 73.6 295.8 66.2ZM354.6 242.9C349.8 234.7 336.4 237.7 326 241.7C325.9 241.7 325.8 241.8 325.7 241.8C261.8 269.7 166.4 311.2 155.3 315.8C168 303.8 198.3 281.7 223.7 263.2C298.7 208.7 352 168.2 355.6 143.1C356.3 138.2 355.2 133.7 352.4 130.1C345.1 120.7 326.9 118 252.2 154.8C255.1 158.9 257.5 163.3 259.4 167.9C326.2 135.2 339 138.5 340.8 139.4C340.9 139.6 341.1 140.1 340.9 141C340.2 145.8 333.9 158.3 299.2 187.3C287.6 196.9 274.5 207.2 260.9 217.5C251.6 244.4 226.4 263.9 196.6 264.7C142.6 304.3 131.1 315.1 135.7 325.5C139.6 334.3 152.3 331.7 158.5 330.5C158.8 330.5 159 330.4 159.3 330.3C160.1 330 161.7 329.5 247.1 292.3C268.4 283 289.5 273.8 305.4 266.9L329.9 256.2C330.4 256 330.9 255.8 331.4 255.5C333 254.9 334.7 254.4 336.3 253.9C332.5 258.1 325.8 264.7 313.9 274.6C313.8 274.7 313.8 274.7 313.7 274.8L252.5 329.8C249.4 332.6 249.2 337.3 251.9 340.3C253.4 341.9 255.4 342.8 257.4 342.8C259.2 342.8 260.9 342.2 262.4 340.9L323.5 285.9C351.7 262.3 359.6 251.4 354.6 242.9ZM129.8 221.6C100.4 238.8 78.6 252.1 74.7 254.6C56.5 261.2 48.1 262.5 44.4 262.5C46.7 258.1 53 250.3 59.8 243.9C77 232.1 99.9 216.3 124.6 199.4C124.5 197.8 124.4 196.3 124.4 194.7C124.4 189.8 124.9 185.1 125.9 180.5C90.9 204.6 61 225.2 51 232.1C50.7 232.3 50.4 232.6 50.1 232.8C37.6 244.6 24 260.8 30.5 271.4C36.1 280.5 50.1 279.6 80.6 268.5C81.1 268.3 81.5 268.1 82 267.8C82.4 267.6 105.1 253.5 137.1 234.8C134.2 230.6 131.8 226.2 129.8 221.6Z" fill="#2168B5"/>
</svg>
