<svg width="388" height="389" viewBox="0 0 388 389" fill="none" xmlns="http://www.w3.org/2000/svg">
<path d="M193.9 0.400024C87 0.400024 0 87.4 0 194.3C0 301.2 87 388.2 193.9 388.2C300.8 388.2 387.8 301.2 387.8 194.3C387.8 87.4 300.8 0.400024 193.9 0.400024ZM258.2 194.3C258.2 229.7 229.4 258.6 193.9 258.6C158.4 258.6 129.6 229.8 129.6 194.3C129.6 158.9 158.4 130 193.9 130C229.4 130 258.2 158.8 258.2 194.3Z" fill="#FFA655"/>
<path d="M357.9 141C352 122.7 358.5 97.9 347.4 82.7C336.2 67.4 310.5 66 295.1 54.8C279.9 43.7 270.7 19.6 252.5 13.7C234.9 8.00002 213.4 21.9 193.8 21.9C174.2 21.9 152.8 8 135.1 13.8C116.8 19.7 107.7 43.8 92.5 54.9C77.1 66.1 51.4 67.4001 40.2 82.8001C29.1 98.0001 35.7 122.8 29.7 141.1C23.9 158.7 3.89999 174.9 3.89999 194.4C3.89999 213.9 24 230 29.7 247.7C35.6 266 29.1 290.8 40.2 306C51.4 321.4 77.1 322.7 92.5 333.9C107.7 345 116.9 369.1 135.1 375C152.7 380.7 174.3 366.9 193.8 366.9C213.3 366.9 234.8 380.8 252.5 375C270.8 369.1 279.9 345 295.1 333.9C310.5 322.7 336.2 321.4 347.4 306C358.5 290.8 351.9 266 357.9 247.7C363.6 230.1 383.7 213.9 383.7 194.4C383.7 174.9 363.7 158.6 357.9 141ZM193.9 258.5C158.5 258.5 129.6 229.7 129.6 194.2C129.6 158.8 158.4 129.9 193.9 129.9C229.4 129.9 258.2 158.7 258.2 194.2C258.2 229.7 229.3 258.5 193.9 258.5Z" fill="#63AA1F"/>
<path d="M157.9 14.1C154.4 13.3 151 12.7 147.7 12.4C151.1 13.2 154.5 13.8 157.9 14.1Z" fill="#548E17"/>
<path d="M357.9 141C352 122.7 358.5 97.8999 347.4 82.6999C336.2 67.3999 310.5 66 295.1 54.8C279.9 43.7 270.7 19.6 252.5 13.7C246.2 11.6 239.4 12.1 232.3 13.5C243.3 23.3 251.3 38.9 262.6 47.2C278 58.4 303.7 59.7 314.9 75.1C326 90.3 319.4 115.1 325.4 133.4C331.1 151 351.2 167.2 351.2 186.7C351.2 206.2 331.1 222.3 325.4 240C319.5 258.3 326 283.1 314.9 298.3C303.7 313.7 278 315 262.6 326.2C247.4 337.3 238.2 361.4 220 367.3C216 368.6 211.8 368.9 207.5 368.6C223 372.2 238.9 379.4 252.4 374.9C270.7 369 279.8 344.9 295 333.8C310.4 322.6 336.1 321.3 347.3 305.9C358.4 290.7 351.8 265.9 357.8 247.6C363.5 230 383.6 213.8 383.6 194.3C383.6 174.8 363.7 158.6 357.9 141Z" fill="#548E17"/>
<path d="M193.9 107.5C146 107.5 107.1 146.4 107.1 194.3C107.1 242.2 146 281.1 193.9 281.1C241.8 281.1 280.7 242.2 280.7 194.3C280.7 146.4 241.8 107.5 193.9 107.5ZM193.9 258.5C158.5 258.5 129.6 229.7 129.6 194.2C129.6 158.8 158.4 129.9 193.9 129.9C229.4 129.9 258.2 158.7 258.2 194.2C258.2 229.7 229.3 258.5 193.9 258.5Z" fill="#548E17"/>
<path d="M193.9 124.2C155.3 124.2 123.8 155.6 123.8 194.3C123.8 233 155.2 264.4 193.9 264.4C232.5 264.4 264 233 264 194.3C264 155.6 232.6 124.2 193.9 124.2ZM193.9 258.5C158.5 258.5 129.6 229.7 129.6 194.2C129.6 158.8 158.4 129.9 193.9 129.9C229.4 129.9 258.2 158.7 258.2 194.2C258.2 229.7 229.3 258.5 193.9 258.5Z" fill="#F7AC41"/>
<path d="M65.8 92.6C58 98.2 62.2 112.3 75.3 143.9C84 164.9 97.1 193.4 114.1 228.8C142.7 288.2 172.6 346 174.3 349.2C175.2 351.1 176 352.8 176.7 354.4C174.3 351.8 171.8 349 169.5 346.2L50 191.2C44.9 184 37.8 174.3 29.7 178.7C22.8 182.5 24.0001 191.2 29.4001 209.2C32.6001 220.1 37.7 235 44.5 253.4C56 284.5 68.7001 315.5 68.9001 315.8C70.5001 319.6 74.8 321.4 78.6 319.9C82.4 318.3 84.2 314 82.7 310.2C67.6 273.4 52.4 233.1 44.8 208.9L157.8 355.5C157.9 355.6 157.9 355.7 158 355.7C158.2 356 163.6 362.4 169.7 368.5C178.2 377.1 186.4 384.5 193.6 379.8C201.3 374.8 197.9 363.9 187.7 342.6C187.7 342.5 187.6 342.5 187.6 342.4C187.3 341.9 159 287.2 130.9 229.1C102.3 170.1 88.7 138.1 82.3 120.9C91.3 133.8 107.1 156.6 125.2 182.8C126.2 176.4 128.1 170.3 130.7 164.6C105.7 128.4 86.8 101.3 85.5 99.9C81.5 95.8 73.3 87.3 65.8 92.6ZM242.5 33.9C234.3 38.7 237.3 52.1 241.3 62.5C241.3 62.6 241.4 62.7 241.4 62.8C269.3 126.7 310.8 222.1 315.4 233.2C303.4 220.5 281.3 190.2 262.8 164.8C208.3 89.8 167.8 36.5 142.7 32.9C137.8 32.2 133.3 33.3 129.7 36.1C120.3 43.4 117.6 61.6 154.4 136.3C158.5 133.4 162.9 131 167.5 129.1C134.8 62.3 138.1 49.5 139 47.7C139.2 47.6 139.7 47.4 140.6 47.6C145.4 48.3 157.9 54.6 186.9 89.3C196.5 100.9 206.8 114 217.1 127.6C244 136.9 263.5 162.1 264.3 191.9C303.9 245.9 314.7 257.4 325.1 252.8C333.9 248.9 331.3 236.2 330.1 230C330.1 229.7 330 229.5 329.9 229.2C329.6 228.4 329.1 226.8 291.9 141.4C282.6 120.1 273.4 99 266.5 83.1L255.8 58.6C255.6 58.1 255.4 57.6 255.1 57.1C254.5 55.5 254 53.8 253.5 52.2C257.7 56 264.3 62.7 274.2 74.6C274.3 74.7 274.3 74.7 274.4 74.8L329.4 136C332.2 139.1 336.9 139.3 339.9 136.6C341.5 135.1 342.4 133.1 342.4 131.1C342.4 129.3 341.8 127.6 340.5 126.1L285.5 65C261.9 36.8 251.1 28.9 242.5 33.9ZM221.2 258.7C238.4 288.1 251.7 309.9 254.2 313.8C260.8 332 262.1 340.4 262.1 344.1C257.7 341.8 249.9 335.5 243.5 328.7C231.7 311.5 215.9 288.6 199 263.9C197.4 264 195.9 264.1 194.3 264.1C189.4 264.1 184.7 263.6 180.1 262.6C204.2 297.6 224.8 327.5 231.7 337.5C231.9 337.8 232.2 338.1 232.4 338.4C244.2 350.9 260.4 364.5 271 358C280.1 352.4 279.2 338.4 268.1 307.9C267.9 307.4 267.7 307 267.4 306.5C267.2 306.1 253.1 283.4 234.4 251.4C230.2 254.3 225.8 256.7 221.2 258.7Z" fill="#663708"/>
</svg>
