<svg width="388" height="389" viewBox="0 0 388 389" fill="none" xmlns="http://www.w3.org/2000/svg">
<path d="M193.9 0.799988C87 0.799988 0 87.7 0 194.6C0 301.5 87 388.5 193.9 388.5C300.8 388.5 387.8 301.5 387.8 194.6C387.8 87.7 300.8 0.799988 193.9 0.799988ZM258.2 194.6C258.2 230 229.4 258.9 193.9 258.9C158.5 258.9 129.6 230.1 129.6 194.6C129.6 159.2 158.4 130.3 193.9 130.3C229.3 130.4 258.2 159.2 258.2 194.6Z" fill="#FFA655"/>
<path d="M374.5 136C368.6 117.7 344.5 108.6 333.4 93.4C322.2 78 320.8 52.3 305.5 41.2C290.3 30.1 265.5 36.7 247.2 30.7C229.6 25 213.4 4.89996 193.9 4.89996C174.4 4.89996 158.3 25 140.6 30.7C122.3 36.6 97.5 30.1 82.3 41.2C66.9 52.4 65.6 78.1 54.4 93.5C43.3 108.7 19.2 117.9 13.3 136.1C7.6 153.7 21.5 175.3 21.5 194.8C21.5 214.3 7.6 235.8 13.3 253.5C19.2 271.8 43.3 280.9 54.4 296.1C65.6 311.5 66.9 337.2 82.3 348.3C97.5 359.4 122.3 352.8 140.6 358.8C158.2 364.5 174.4 384.6 193.9 384.6C213.4 384.6 229.5 364.5 247.2 358.8C265.5 352.9 290.3 359.4 305.5 348.3C320.9 337.1 322.2 311.4 333.4 296C344.5 280.8 368.6 271.6 374.5 253.4C380.2 235.8 366.3 214.2 366.3 194.7C366.4 175.1 380.3 153.6 374.5 136ZM193.9 258.9C158.5 258.9 129.6 230.1 129.6 194.6C129.6 159.2 158.4 130.3 193.9 130.3C229.3 130.3 258.2 159.1 258.2 194.6C258.2 230.1 229.3 258.9 193.9 258.9Z" fill="#F9E3A5"/>
<path d="M374.5 136C368.6 117.7 344.5 108.6 333.4 93.4C322.2 78 320.8 52.3 305.5 41.1C294.5 33.1 278.4 34.3 263.5 33.3C269.9 45.7 272.9 61.5 280.7 72.2C291.8 87.4 315.9 96.6 321.8 114.8C327.5 132.4 313.6 154 313.6 173.5C313.6 193 327.5 214.5 321.8 232.2C315.9 250.5 291.8 259.6 280.7 274.8C269.5 290.2 268.1 315.9 252.8 327.1C237.6 338.2 212.8 331.6 194.5 337.6C179.3 342.6 165.2 358.2 149 362.4C163.5 370.3 177.5 384.5 193.9 384.5C213.4 384.5 229.5 364.4 247.2 358.7C265.5 352.8 290.3 359.3 305.5 348.2C320.9 337 322.2 311.3 333.4 295.9C344.5 280.7 368.6 271.5 374.5 253.3C380.2 235.7 366.3 214.1 366.3 194.6C366.4 175.2 380.3 153.6 374.5 136Z" fill="#F4CA6C"/>
<path d="M193.9 107.9C146.1 107.9 107.1 146.8 107.1 194.7C107.1 242.5 146 281.5 193.9 281.5C241.7 281.5 280.7 242.6 280.7 194.7C280.7 146.8 241.8 107.9 193.9 107.9ZM193.9 258.9C158.5 258.9 129.6 230.1 129.6 194.6C129.6 159.2 158.4 130.3 193.9 130.3C229.3 130.3 258.2 159.1 258.2 194.6C258.2 230.1 229.3 258.9 193.9 258.9Z" fill="#F4CA6C"/>
<path d="M193.9 124.6C155.3 124.6 123.8 156 123.8 194.7C123.8 233.3 155.2 264.8 193.9 264.8C232.5 264.8 264 233.4 264 194.7C264 156 232.6 124.6 193.9 124.6ZM193.9 258.9C158.5 258.9 129.6 230.1 129.6 194.6C129.6 159.2 158.4 130.3 193.9 130.3C229.3 130.3 258.2 159.1 258.2 194.6C258.2 230.1 229.3 258.9 193.9 258.9Z" fill="#EF8425"/>
<path d="M291.5 286C285 279.5 282.2 271.7 285.3 268.5C288.4 265.4 296.2 268.1 302.8 274.7C309.3 281.2 312.1 289 309 292.2C305.8 295.2 298 292.5 291.5 286Z" fill="#FCB73D"/>
<path d="M104.2 73C104.2 63.8 107.8 56.3 112.2 56.3C116.6 56.3 120.2 63.8 120.2 73C120.2 82.2 116.6 89.7 112.2 89.7C107.8 89.7 104.2 82.2 104.2 73Z" fill="#FCB73D"/>
<path d="M68.8 150C76.8 154.6 81.5 161.4 79.3 165.3C77.1 169.1 68.8 168.5 60.8 163.9C52.8 159.3 48.1 152.5 50.3 148.6C52.6 144.7 60.8 145.4 68.8 150Z" fill="#FCB73D"/>
<path d="M61 261.1C65.6 253.1 72.4 248.4 76.3 250.6C80.1 252.8 79.5 261.1 74.9 269.1C70.3 277.1 63.5 281.8 59.6 279.6C55.7 277.3 56.4 269.1 61 261.1Z" fill="#FCB73D"/>
<path d="M104.9 293.7C113.8 291.3 122 292.8 123.1 297.1C124.2 301.4 117.9 306.8 109 309.1C100.1 311.5 91.9 310 90.8 305.7C89.7 301.4 96 296.1 104.9 293.7Z" fill="#FCB73D"/>
<path d="M273.4 95.3C273.4 86.1 277 78.6 281.4 78.6C285.8 78.6 289.4 86.1 289.4 95.3C289.4 104.5 285.8 112 281.4 112C276.9 112 273.4 104.5 273.4 95.3Z" fill="#FCB73D"/>
<path d="M227.8 99.7C221.3 93.2 218.5 85.4 221.6 82.2C224.7 79.1 232.5 81.8 239.1 88.4C245.6 94.9 248.4 102.7 245.3 105.9C242.2 109 234.3 106.2 227.8 99.7Z" fill="#FCB73D"/>
<path d="M152.2 83C145.7 76.5 142.9 68.7 146 65.5C149.1 62.4 156.9 65.1 163.5 71.7C170 78.2 172.8 86 169.7 89.2C166.6 92.2 158.8 89.5 152.2 83Z" fill="#FCB73D"/>
<path d="M133.7 327.7C136.9 319 142.8 313.2 146.9 314.7C151 316.2 151.8 324.5 148.7 333.1C145.5 341.8 139.6 347.6 135.5 346.1C131.4 344.6 130.6 336.4 133.7 327.7Z" fill="#FCB73D"/>
<path d="M333.9 142.5C327.4 136 324.6 128.2 327.7 125C330.8 121.9 338.6 124.6 345.2 131.2C351.7 137.7 354.5 145.5 351.4 148.7C348.3 151.8 340.5 149 333.9 142.5Z" fill="#FCB73D"/>
<path d="M311.1 185.2C315.7 177.2 322.5 172.5 326.4 174.7C330.2 176.9 329.6 185.2 325 193.2C320.4 201.2 313.6 205.9 309.7 203.7C305.9 201.5 306.5 193.2 311.1 185.2Z" fill="#FCB73D"/>
<path d="M258.3 317.8C262.9 309.8 269.7 305.1 273.6 307.3C277.4 309.5 276.8 317.8 272.2 325.8C267.6 333.8 260.8 338.5 256.9 336.3C253.1 334.1 253.7 325.8 258.3 317.8Z" fill="#FCB73D"/>
<path d="M334.7 235.7C339.3 227.7 346.1 223 350 225.2C353.8 227.4 353.2 235.7 348.6 243.7C344 251.7 337.2 256.4 333.3 254.2C329.5 251.9 330.1 243.7 334.7 235.7Z" fill="#FCB73D"/>
<path d="M204.1 334.5C212.1 339.1 216.8 345.9 214.6 349.8C212.4 353.6 204.1 353 196.1 348.4C188.1 343.8 183.4 337 185.6 333.1C187.8 329.3 196.1 329.9 204.1 334.5Z" fill="#FCB73D"/>
<path d="M42.1 216.8C42.1 207.6 45.7 200.1 50.1 200.1C54.5 200.1 58.1 207.6 58.1 216.8C58.1 226 54.5 233.5 50.1 233.5C45.7 233.5 42.1 226 42.1 216.8Z" fill="#FCB73D"/>
<path d="M97.2 113.9C106.1 111.5 114.3 113 115.4 117.3C116.5 121.6 110.2 127 101.3 129.3C92.4 131.7 84.2 130.2 83.1 125.9C82 121.7 88.3 116.3 97.2 113.9Z" fill="#FCB73D"/>
<path d="M209.7 289C218.6 286.6 226.8 288.1 227.9 292.4C229 296.7 222.7 302.1 213.8 304.4C204.9 306.8 196.7 305.3 195.6 301C194.5 296.8 200.8 291.4 209.7 289Z" fill="#FCB73D"/>
<path d="M194.7 43.4C197.9 34.7 203.8 28.9 207.9 30.4C212 31.9 212.8 40.2 209.7 48.8C206.5 57.5 200.6 63.3 196.5 61.8C192.4 60.3 191.6 52.1 194.7 43.4Z" fill="#FCB73D"/>
</svg>
