<svg width="389" height="389" viewBox="0 0 389 389" fill="none" xmlns="http://www.w3.org/2000/svg">
<path d="M331.5 57.2C255.9 -18.4 132.9 -18.4 57.3 57.2C-18.3 132.8 -18.3 255.8 57.3 331.4C132.9 407 255.9 407 331.5 331.4C407.1 255.8 407.1 132.8 331.5 57.2ZM239.8 239.8C214.7 264.9 174 264.9 148.9 239.8C123.8 214.7 123.8 174 148.9 148.9C174 123.8 214.7 123.8 239.8 148.9C264.9 173.9 264.9 214.7 239.8 239.8Z" fill="#FFA655"/>
<path d="M364.7 167.3C361.8 148.7 372.3 125.2 363.6 108.1C355.2 91.6 330.2 86.2 316.3 72.4C302.5 58.6 297.1 33.5 280.6 25.1C263.5 16.4 240 27 221.4 24C202.6 21.1 183.5 3.8 164.7 6.8C146.1 9.7 133.2 31.9 116.1 40.6C99.6 49 73.9 46.2 60.1 60C46.3 73.8 49.1 99.4 40.7 116C32 133.1 9.79998 146 6.89998 164.6C3.89998 183.4 21.2 202.5 24.1 221.3C27 239.9 16.5 263.4 25.2 280.5C33.6 297 58.6 302.4 72.5 316.2C86.3 330 91.7 355 108.2 363.5C125.3 372.2 148.8 361.6 167.4 364.6C186.2 367.6 205.3 384.8 224.1 381.8C242.7 378.9 255.6 356.7 272.7 348C289.2 339.6 314.8 342.4 328.6 328.6C342.4 314.8 339.6 289.2 348 272.6C356.7 255.5 378.9 242.6 381.8 224C384.8 205.2 367.6 186.1 364.7 167.3ZM239.8 239.8C214.7 264.9 174 264.9 148.9 239.8C123.8 214.7 123.8 174 148.9 148.9C174 123.8 214.7 123.8 239.8 148.9C264.9 173.9 264.9 214.7 239.8 239.8Z" fill="#C90DA1"/>
<path d="M364.7 167.3C361.8 148.7 372.3 125.2 363.6 108.1C355.2 91.5999 330.2 86.2 316.3 72.4C302.5 58.6 297.1 33.5999 280.6 25.0999C269.1 19.1999 254.7 22.1 240.8 23.7C242.6 24.2 244.4 24.9 246.1 25.8C262.6 34.2 268 59.1999 281.8 73.0999C295.6 86.8999 320.6 92.3 329.1 108.8C337.8 125.9 327.2 149.4 330.2 168C333.1 186.8 350.4 205.9 347.4 224.7C344.5 243.3 322.3 256.2 313.6 273.3C305.2 289.8 308 315.4 294.2 329.3C280.4 343.1 254.8 340.3 238.2 348.7C225 355.4 214.2 370.2 201.5 377.9C209.1 381 216.6 383 224.1 381.8C242.7 378.9 255.6 356.7 272.7 348C289.2 339.6 314.8 342.4 328.7 328.6C342.5 314.8 339.7 289.2 348.1 272.6C356.8 255.5 379 242.6 381.9 224C384.8 205.2 367.6 186.1 364.7 167.3Z" fill="#A00A84"/>
<path d="M254.2 134.5C221.2 101.5 167.5 101.5 134.6 134.5C101.6 167.5 101.6 221.2 134.6 254.1C167.6 287.1 221.3 287.1 254.2 254.1C287.2 221.2 287.2 167.5 254.2 134.5ZM149 239.8C123.9 214.7 123.9 174 149 148.9C174.1 123.8 214.8 123.8 239.9 148.9C265 174 265 214.7 239.9 239.8C214.8 264.8 174 264.8 149 239.8Z" fill="#A81A7D"/>
<path d="M244.5 144.3C216.9 116.7 172 116.7 144.4 144.3C116.8 171.9 116.8 216.8 144.4 244.4C172 272 216.9 272 244.5 244.4C272.1 216.8 272.1 171.9 244.5 144.3ZM239.8 239.8C214.7 264.9 174 264.9 148.9 239.8C123.8 214.7 123.8 174 148.9 148.9C174 123.8 214.7 123.8 239.8 148.9C264.9 173.9 264.9 214.7 239.8 239.8Z" fill="#F7AC41"/>
<path d="M57.7 149.8C63 155.1 63 163.7 57.7 169C52.4 174.3 43.8 174.3 38.5 169C33.2 163.7 33.2 155.1 38.5 149.8C43.8 144.5 52.4 144.5 57.7 149.8Z" fill="#F92D4F"/>
<path d="M162.8 72.4C168.8 78.4 168.8 88 162.8 94C156.8 100 147.2 100 141.2 94C135.2 88 135.2 78.4 141.2 72.4C147.2 66.4 156.9 66.4 162.8 72.4Z" fill="#F92D4F"/>
<path d="M263.2 70.1C269.717 70.1 275 64.8169 275 58.3C275 51.783 269.717 46.5 263.2 46.5C256.683 46.5 251.4 51.783 251.4 58.3C251.4 64.8169 256.683 70.1 263.2 70.1Z" fill="#663708"/>
<path d="M53 240.8C56.6 244.4 56.6 250.1 53 253.7C49.4 257.3 43.7 257.3 40.1 253.7C36.5 250.1 36.5 244.4 40.1 240.8C43.6 237.2 49.4 237.2 53 240.8Z" fill="#663708"/>
<path d="M76.6 85.3C81.7362 85.3 85.9 81.1362 85.9 76C85.9 70.8638 81.7362 66.7 76.6 66.7C71.4637 66.7 67.3 70.8638 67.3 76C67.3 81.1362 71.4637 85.3 76.6 85.3Z" fill="#663708"/>
<path d="M81.3 292.3C87.2647 292.3 92.1 287.465 92.1 281.5C92.1 275.535 87.2647 270.7 81.3 270.7C75.3353 270.7 70.5 275.535 70.5 281.5C70.5 287.465 75.3353 292.3 81.3 292.3Z" fill="#F92D4F"/>
<path d="M98.8 101.2C104.8 107.2 104.8 116.8 98.8 122.8C92.8 128.8 83.2 128.8 77.2 122.8C71.2 116.8 71.2 107.2 77.2 101.2C83.2 95.2999 92.9 95.2999 98.8 101.2Z" fill="#F92D4F"/>
<path d="M113.8 254.7C117 257.9 117 263.2 113.8 266.4C110.6 269.6 105.3 269.6 102.1 266.4C98.9 263.2 98.9 257.9 102.1 254.7C105.3 251.5 110.5 251.5 113.8 254.7Z" fill="#663708"/>
<path d="M231.5 79.2C235.4 83.1 235.4 89.4001 231.5 93.3001C227.6 97.2001 221.3 97.2001 217.4 93.3001C213.5 89.4001 213.5 83.1 217.4 79.2C221.3 75.3 227.6 75.3 231.5 79.2Z" fill="#663708"/>
<path d="M184 30.1C187.8 33.9 187.8 40 184 43.8C180.2 47.6 174.1 47.6 170.3 43.8C166.5 40 166.5 33.9 170.3 30.1C174.1 26.3 180.3 26.3 184 30.1Z" fill="#663708"/>
<path d="M128.7 344.6C137.095 344.6 143.9 337.795 143.9 329.4C143.9 321.005 137.095 314.2 128.7 314.2C120.305 314.2 113.5 321.005 113.5 329.4C113.5 337.795 120.305 344.6 128.7 344.6Z" fill="#F92D4F"/>
<path d="M235.2 307.7C243.595 307.7 250.4 300.895 250.4 292.5C250.4 284.105 243.595 277.3 235.2 277.3C226.805 277.3 220 284.105 220 292.5C220 300.895 226.805 307.7 235.2 307.7Z" fill="#F92D4F"/>
<path d="M278.9 128.1C287.295 128.1 294.1 121.295 294.1 112.9C294.1 104.505 287.295 97.7 278.9 97.7C270.505 97.7 263.7 104.505 263.7 112.9C263.7 121.295 270.505 128.1 278.9 128.1Z" fill="#F92D4F"/>
<path d="M234.4 341.8C240.4 347.8 240.4 357.4 234.4 363.4C228.4 369.4 218.8 369.4 212.8 363.4C206.8 357.4 206.8 347.8 212.8 341.8C218.8 335.8 228.4 335.8 234.4 341.8Z" fill="#F92D4F"/>
<path d="M325.7 138.7C331.444 138.7 336.1 134.044 336.1 128.3C336.1 122.556 331.444 117.9 325.7 117.9C319.956 117.9 315.3 122.556 315.3 128.3C315.3 134.044 319.956 138.7 325.7 138.7Z" fill="#663708"/>
<path d="M170.9 324.7C175.484 324.7 179.2 320.984 179.2 316.4C179.2 311.816 175.484 308.1 170.9 308.1C166.316 308.1 162.6 311.816 162.6 316.4C162.6 320.984 166.316 324.7 170.9 324.7Z" fill="#663708"/>
<path d="M307.4 238.3C312.426 238.3 316.5 234.226 316.5 229.2C316.5 224.174 312.426 220.1 307.4 220.1C302.374 220.1 298.3 224.174 298.3 229.2C298.3 234.226 302.374 238.3 307.4 238.3Z" fill="#663708"/>
<path d="M297.2 304C305.595 304 312.4 297.195 312.4 288.8C312.4 280.405 305.595 273.6 297.2 273.6C288.805 273.6 282 280.405 282 288.8C282 297.195 288.805 304 297.2 304Z" fill="#F92D4F"/>
<path d="M346.6 214.4C354.995 214.4 361.8 207.595 361.8 199.2C361.8 190.805 354.995 184 346.6 184C338.205 184 331.4 190.805 331.4 199.2C331.4 207.595 338.205 214.4 346.6 214.4Z" fill="#F92D4F"/>
<path d="M84.5 195C87.8 198.3 87.8 203.7 84.5 207C81.2 210.3 75.8 210.3 72.5 207C69.2 203.7 69.2 198.3 72.5 195C75.8 191.7 81.2 191.7 84.5 195Z" fill="#663708"/>
<path d="M307.9 165.6C313.9 171.6 313.9 181.2 307.9 187.2C301.9 193.2 292.3 193.2 286.3 187.2C280.3 181.2 280.3 171.6 286.3 165.6C292.3 159.6 301.9 159.6 307.9 165.6Z" fill="#F92D4F"/>
</svg>
