<svg width="389" height="389" viewBox="0 0 389 389" fill="none" xmlns="http://www.w3.org/2000/svg">
<path d="M331.6 57.3C256 -18.3 133 -18.3 57.4 57.3C-18.2 132.9 -18.2 255.9 57.4 331.5C133 407.1 256 407.1 331.6 331.5C407.2 255.9 407.2 132.8 331.6 57.3ZM244.6 244.4C217 272 172.1 272 144.5 244.4C116.9 216.8 116.9 171.9 144.5 144.3C172.1 116.7 217 116.7 244.6 144.3C272.2 171.9 272.2 216.8 244.6 244.4Z" fill="#FFA655"/>
<path d="M364.8 167.4C361.9 148.8 372.4 125.3 363.7 108.2C355.3 91.7 330.3 86.3 316.4 72.5C302.6 58.7 297.2 33.6 280.7 25.2C263.6 16.5 240.1 27.1 221.5 24.1C202.7 21.2 183.6 3.90001 164.8 6.90001C146.2 9.80001 133.3 32 116.2 40.7C99.7 49.1 74 46.3 60.2 60.1C46.4 73.9 49.2 99.5 40.8 116.1C32.1 133.2 9.90001 146.1 7.00001 164.7C4.00001 183.5 21.3 202.6 24.2 221.4C27.1 240 16.6 263.5 25.3 280.6C33.7 297.1 58.7 302.5 72.6 316.3C86.4 330.1 91.8001 355.1 108.3 363.6C125.4 372.3 148.9 361.7 167.5 364.7C186.3 367.7 205.4 384.9 224.2 381.9C242.8 379 255.7 356.8 272.8 348.1C289.3 339.7 314.9 342.5 328.7 328.7C342.5 314.9 339.7 289.3 348.1 272.7C356.8 255.6 379 242.7 381.9 224.1C384.9 205.3 367.7 186.1 364.8 167.4ZM144.5 244.4C116.9 216.8 116.9 171.9 144.5 144.3C172.1 116.7 217 116.7 244.6 144.3C272.2 171.9 272.2 216.8 244.6 244.4C217 272 172.1 272 144.5 244.4Z" fill="#F92D4F"/>
<path d="M364.8 167.4C361.9 148.8 372.4 125.3 363.7 108.2C355.3 91.7 330.3 86.3 316.4 72.5C302.6 58.7 297.2 33.7 280.7 25.2C270.1 19.8 257.1 21.8 244.3 23.4C259.2 32.8 264.7 56.2 277.9 69.4C291.7 83.2 316.7 88.6 325.2 105.1C333.9 122.2 323.3 145.7 326.3 164.3C329.2 183.1 346.5 202.2 343.5 221C340.6 239.6 318.4 252.5 309.7 269.6C301.3 286.1 304.1 311.7 290.3 325.6C276.5 339.4 250.9 336.6 234.3 345C220.4 352.1 209.3 368 195.6 375.3C205.2 379.7 214.7 383.3 224.2 381.8C242.8 378.9 255.7 356.7 272.8 348C289.3 339.6 314.9 342.4 328.8 328.6C342.6 314.8 339.8 289.2 348.2 272.6C356.9 255.5 379.1 242.6 382 224C384.9 205.3 367.7 186.1 364.8 167.4Z" fill="#D3163E"/>
<path d="M254.3 134.5C221.3 101.5 167.6 101.5 134.7 134.5C101.7 167.5 101.7 221.2 134.7 254.1C167.7 287.1 221.4 287.1 254.3 254.1C287.3 221.2 287.3 167.5 254.3 134.5ZM149.1 239.8C124 214.7 124 174 149.1 148.9C174.2 123.8 214.9 123.8 240 148.9C265.1 174 265.1 214.7 240 239.8C214.9 264.8 174.1 264.8 149.1 239.8Z" fill="#D3163E"/>
<path d="M244.6 144.3C217 116.7 172.1 116.7 144.5 144.3C116.9 171.9 116.9 216.8 144.5 244.4C172.1 272 217 272 244.6 244.4C272.2 216.8 272.2 171.9 244.6 144.3ZM240 239.8C214.9 264.9 174.2 264.9 149.1 239.8C124 214.7 124 174 149.1 148.9C174.2 123.8 214.9 123.8 240 148.9C265 174 265 214.7 240 239.8Z" fill="#FFA655"/>
<path d="M48.2 174.6C56.5947 174.6 63.4 167.795 63.4 159.4C63.4 151.005 56.5947 144.2 48.2 144.2C39.8053 144.2 33 151.005 33 159.4C33 167.795 39.8053 174.6 48.2 174.6Z" fill="#FFB90B"/>
<path d="M152.1 98.4C160.495 98.4 167.3 91.5947 167.3 83.2C167.3 74.8053 160.495 68 152.1 68C143.705 68 136.9 74.8053 136.9 83.2C136.9 91.5947 143.705 98.4 152.1 98.4Z" fill="#BC2406"/>
<path d="M274.1 47.5C280.1 53.5 280.1 63.1 274.1 69.1C268.1 75.1 258.5 75.1 252.5 69.1C246.5 63.1 246.5 53.5 252.5 47.5C258.5 41.5 268.1 41.5 274.1 47.5Z" fill="#57A7FF"/>
<path d="M46.6 262.4C54.9947 262.4 61.8 255.595 61.8 247.2C61.8 238.805 54.9947 232 46.6 232C38.2052 232 31.4 238.805 31.4 247.2C31.4 255.595 38.2052 262.4 46.6 262.4Z" fill="#57A7FF"/>
<path d="M84.7 88.7C93.0947 88.7 99.9 81.8947 99.9 73.5C99.9 65.1053 93.0947 58.3 84.7 58.3C76.3052 58.3 69.5 65.1053 69.5 73.5C69.5 81.8947 76.3052 88.7 84.7 88.7Z" fill="#63AA1F"/>
<path d="M79.2 222.6C87.5947 222.6 94.4 215.795 94.4 207.4C94.4 199.005 87.5947 192.2 79.2 192.2C70.8052 192.2 64 199.005 64 207.4C64 215.795 70.8052 222.6 79.2 222.6Z" fill="#663708"/>
<path d="M120.8 287.3C129.195 287.3 136 280.495 136 272.1C136 263.705 129.195 256.9 120.8 256.9C112.405 256.9 105.6 263.705 105.6 272.1C105.6 280.495 112.405 287.3 120.8 287.3Z" fill="#63AA1F"/>
<path d="M104.7 134.1C113.095 134.1 119.9 127.295 119.9 118.9C119.9 110.505 113.095 103.7 104.7 103.7C96.3052 103.7 89.5 110.505 89.5 118.9C89.5 127.295 96.3052 134.1 104.7 134.1Z" fill="#57A7FF"/>
<path d="M235.3 75.5C241.3 81.5 241.3 91.1 235.3 97.1C229.3 103.1 219.7 103.1 213.7 97.1C207.7 91.1 207.7 81.5 213.7 75.5C219.7 69.5 229.4 69.5 235.3 75.5Z" fill="#63AA1F"/>
<path d="M177.3 52.2C185.695 52.2 192.5 45.3947 192.5 37C192.5 28.6053 185.695 21.8 177.3 21.8C168.905 21.8 162.1 28.6053 162.1 37C162.1 45.3947 168.905 52.2 177.3 52.2Z" fill="#FFB90B"/>
<path d="M128.8 344.6C137.195 344.6 144 337.795 144 329.4C144 321.005 137.195 314.2 128.8 314.2C120.405 314.2 113.6 321.005 113.6 329.4C113.6 337.795 120.405 344.6 128.8 344.6Z" fill="#BC2406"/>
<path d="M187.3 295.5C193.3 301.5 193.3 311.1 187.3 317.1C181.3 323.1 171.7 323.1 165.7 317.1C159.7 311.1 159.7 301.5 165.7 295.5C171.7 289.5 181.4 289.5 187.3 295.5Z" fill="#FFB90B"/>
<path d="M289.8 102.2C295.8 108.2 295.8 117.8 289.8 123.8C283.8 129.8 274.2 129.8 268.2 123.8C262.2 117.8 262.2 108.2 268.2 102.2C274.1 96.2 283.8 96.2 289.8 102.2Z" fill="#FFB90B"/>
<path d="M219.7 373.9C228.095 373.9 234.9 367.095 234.9 358.7C234.9 350.305 228.095 343.5 219.7 343.5C211.305 343.5 204.5 350.305 204.5 358.7C204.5 367.095 211.305 373.9 219.7 373.9Z" fill="#663708"/>
<path d="M323.6 162.1C331.995 162.1 338.8 155.295 338.8 146.9C338.8 138.505 331.995 131.7 323.6 131.7C315.205 131.7 308.4 138.505 308.4 146.9C308.4 155.295 315.205 162.1 323.6 162.1Z" fill="#57A7FF"/>
<path d="M269 287.8C275 293.8 275 303.4 269 309.4C263 315.4 253.4 315.4 247.4 309.4C241.4 303.4 241.4 293.8 247.4 287.8C253.4 281.8 263 281.8 269 287.8Z" fill="#57A7FF"/>
<path d="M307.5 244.5C315.895 244.5 322.7 237.695 322.7 229.3C322.7 220.905 315.895 214.1 307.5 214.1C299.105 214.1 292.3 220.905 292.3 229.3C292.3 237.695 299.105 244.5 307.5 244.5Z" fill="#FFB90B"/>
<path d="M309 303C317.395 303 324.2 296.195 324.2 287.8C324.2 279.405 317.395 272.6 309 272.6C300.605 272.6 293.8 279.405 293.8 287.8C293.8 296.195 300.605 303 309 303Z" fill="#63AA1F"/>
<path d="M357.5 188.4C363.5 194.4 363.5 204 357.5 210C351.5 216 341.9 216 335.9 210C329.9 204 329.9 194.4 335.9 188.4C341.9 182.5 351.6 182.5 357.5 188.4Z" fill="#663708"/>
<path d="M87.2 262.1C93.2 268.1 93.2 277.7 87.2 283.7C81.2 289.7 71.6 289.7 65.6 283.7C59.6 277.7 59.6 268.1 65.6 262.1C71.6 256.2 81.2 256.2 87.2 262.1Z" fill="#FFB90B"/>
<path d="M297.2 191.6C305.595 191.6 312.4 184.795 312.4 176.4C312.4 168.005 305.595 161.2 297.2 161.2C288.805 161.2 282 168.005 282 176.4C282 184.795 288.805 191.6 297.2 191.6Z" fill="#BC2406"/>
</svg>
