<svg width="389" height="389" viewBox="0 0 389 389" fill="none" xmlns="http://www.w3.org/2000/svg">
<path d="M194.5 0.400024C87.6 0.400024 0.599976 87.4 0.599976 194.3C0.599976 301.2 87.6 388.2 194.5 388.2C301.4 388.2 388.4 301.2 388.4 194.3C388.4 87.4 301.4 0.400024 194.5 0.400024ZM258.8 194.3C258.8 229.7 230 258.6 194.5 258.6C159.1 258.6 130.2 229.8 130.2 194.3C130.2 158.9 159 130 194.5 130C229.9 130 258.8 158.8 258.8 194.3Z" fill="#FFA655"/>
<path d="M375.1 135.6C369.2 117.3 345.1 108.2 334 93C322.8 77.6 321.4 51.9 306.1 40.8C290.9 29.7 266.1 36.3 247.8 30.3C230.2 24.6 214 4.5 194.5 4.5C175 4.5 158.9 24.6 141.2 30.3C122.9 36.2 98.1 29.7 82.9 40.8C67.5 52 66.2 77.7 55 93.1C43.9 108.3 19.8 117.5 13.9 135.7C8.19999 153.3 22 174.9 22 194.4C22 213.9 8.09999 235.5 13.9 253.1C19.8 271.4 43.9 280.5 55 295.7C66.2 311.1 67.6 336.8 82.9 347.9C98.1 359 122.9 352.4 141.2 358.4C158.8 364.1 175 384.2 194.5 384.2C214 384.2 230.1 364.1 247.8 358.4C266.1 352.5 290.9 359 306.1 347.9C321.5 336.7 322.8 311 334 295.6C345.1 280.4 369.2 271.2 375.1 253C380.8 235.4 366.9 213.8 366.9 194.3C367 174.7 380.9 153.2 375.1 135.6ZM194.5 258.5C159.1 258.5 130.2 229.7 130.2 194.2C130.2 158.8 159 129.9 194.5 129.9C229.9 129.9 258.8 158.7 258.8 194.2C258.8 229.7 229.9 258.5 194.5 258.5Z" fill="#FFD710"/>
<path d="M375.1 135.6C369.2 117.3 345.1 108.2 334 93C322.8 77.6 321.4 51.9 306.1 40.7C297.6 34.5 286 33.8 274.3 33.4C274.4 33.5 274.5 33.5 274.6 33.6C290 44.8 291.3 70.5 302.5 85.9C313.6 101.1 337.7 110.3 343.6 128.5C349.3 146.1 335.4 167.7 335.4 187.2C335.4 206.7 349.3 228.2 343.6 245.9C337.7 264.2 313.6 273.3 302.5 288.5C291.3 303.9 289.9 329.6 274.6 340.8C259.4 351.9 234.6 345.3 216.3 351.3C201.2 356.2 187.1 371.7 171.1 376C178.5 380.6 186.2 384.2 194.5 384.2C214 384.2 230.1 364.1 247.8 358.4C266.1 352.5 290.9 359 306.1 347.9C321.5 336.7 322.8 311 334 295.6C345.1 280.4 369.2 271.2 375.1 253C380.8 235.4 366.9 213.8 366.9 194.3C367 174.7 380.9 153.2 375.1 135.6Z" fill="#FFBB12"/>
<path d="M194.5 107.5C146.7 107.5 107.7 146.4 107.7 194.3C107.7 242.2 146.6 281.1 194.5 281.1C242.4 281.1 281.3 242.2 281.3 194.3C281.3 146.4 242.4 107.5 194.5 107.5ZM194.5 258.5C159.1 258.5 130.2 229.7 130.2 194.2C130.2 158.8 159 129.9 194.5 129.9C229.9 129.9 258.8 158.7 258.8 194.2C258.8 229.7 229.9 258.5 194.5 258.5Z" fill="#FFBB12"/>
<path d="M194.5 124.2C155.9 124.2 124.4 155.6 124.4 194.3C124.4 232.9 155.8 264.4 194.5 264.4C233.2 264.4 264.6 233 264.6 194.3C264.6 155.6 233.1 124.2 194.5 124.2ZM194.5 258.5C159.1 258.5 130.2 229.7 130.2 194.2C130.2 158.8 159 129.9 194.5 129.9C229.9 129.9 258.8 158.7 258.8 194.2C258.8 229.7 229.9 258.5 194.5 258.5Z" fill="#EF8425"/>
<path d="M66.3 245.9C66.3 248 64.6 249.7 62.5 249.7H36.4C34.3 249.7 32.6 248 32.6 245.9C32.6 243.8 34.3 242.1 36.4 242.1H62.5C64.6 242.1 66.3 243.8 66.3 245.9Z" fill="#57A7FF"/>
<path d="M348.1 219.9C346 219.9 344.3 218.2 344.3 216.1V190C344.3 187.9 346 186.2 348.1 186.2C350.2 186.2 351.9 187.9 351.9 190V216.1C351.9 218.1 350.2 219.9 348.1 219.9Z" fill="white"/>
<path d="M244 346.2C243 348 240.6 348.6 238.8 347.6L216.2 334.5C214.4 333.5 213.8 331.1 214.8 329.3C215.8 327.5 218.2 326.9 220 327.9L242.6 341C244.4 342.1 245 344.4 244 346.2Z" fill="white"/>
<path d="M215.3 308.2C215.3 310.3 213.6 312 211.5 312H185.4C183.3 312 181.6 310.3 181.6 308.2C181.6 306.1 183.3 304.4 185.4 304.4H211.5C213.6 304.4 215.3 306.1 215.3 308.2Z" fill="#F92D4F"/>
<path d="M313.5 306.9C313.5 309 311.8 310.7 309.7 310.7H283.6C281.5 310.7 279.8 309 279.8 306.9C279.8 304.8 281.5 303.1 283.6 303.1H309.7C311.8 303.1 313.5 304.8 313.5 306.9Z" fill="#F92D4F"/>
<path d="M68.9 148.9C66.9 149.4 64.8 148.2 64.2 146.2L57.4 120.9C56.9 118.9 58.1 116.8 60.1 116.2C62.1 115.7 64.2 116.9 64.8 118.9L71.6 144.2C72.1 146.2 70.9 148.3 68.9 148.9Z" fill="#57A7FF"/>
<path d="M270.9 337.9C268.9 338.4 266.8 337.2 266.2 335.2L259.4 309.9C258.9 307.9 260.1 305.8 262.1 305.2C264.1 304.7 266.2 305.9 266.8 307.9L273.6 333.2C274.1 335.2 272.9 337.3 270.9 337.9Z" fill="#57A7FF"/>
<path d="M355.1 158.4C354.1 160.2 351.7 160.8 349.9 159.8L327.3 146.7C325.5 145.7 324.9 143.3 325.9 141.5C326.9 139.7 329.3 139.1 331.1 140.1L353.7 153.2C355.5 154.2 356.1 156.5 355.1 158.4Z" fill="#57A7FF"/>
<path d="M164.2 95.1999C163.2 96.9999 160.8 97.6 159 96.6L136.4 83.5C134.6 82.5 134 80.1 135 78.3C136 76.5 138.4 75.9 140.2 76.9L162.8 90C164.6 91 165.2 93.3999 164.2 95.1999Z" fill="#57A7FF"/>
<path d="M148.4 312.9C146.4 313.4 144.3 312.2 143.7 310.2L136.9 284.9C136.4 282.9 137.6 280.8 139.6 280.2C141.6 279.7 143.7 280.9 144.3 282.9L151.1 308.2C151.7 310.2 150.5 312.3 148.4 312.9Z" fill="#57A7FF"/>
<path d="M261.5 102.2C259.5 102.7 257.4 101.5 256.8 99.5L250 74.2C249.5 72.2 250.7 70.1 252.7 69.5C254.7 69 256.8 70.2 257.4 72.2L264.2 97.5C264.8 99.5 263.5 101.6 261.5 102.2Z" fill="#57A7FF"/>
<path d="M289.4 279.9C287.9 278.4 287.9 276 289.4 274.5L307.9 256C309.4 254.5 311.8 254.5 313.3 256C314.8 257.5 314.8 259.9 313.3 261.4L294.8 279.9C293.3 281.4 290.9 281.4 289.4 279.9Z" fill="#57A7FF"/>
<path d="M215.4 81C215.4 83.1 213.7 84.8 211.6 84.8H185.5C183.4 84.8 181.7 83.1 181.7 81C181.7 78.9 183.4 77.2 185.5 77.2H211.6C213.7 77.2 215.4 78.9 215.4 81Z" fill="#F92D4F"/>
<path d="M90.1 70.9C88.6 69.4 88.6 67 90.1 65.5L108.6 47C110.1 45.5 112.5 45.5 114 47C115.5 48.5 115.5 50.9 114 52.4L95.5 70.9C94.1 72.4 91.6 72.4 90.1 70.9Z" fill="#F92D4F"/>
<path d="M293.7 200.5C291.7 200 290.5 197.9 291 195.8L297.8 170.5C298.3 168.5 300.4 167.3 302.5 167.8C304.5 168.3 305.7 170.4 305.2 172.5L298.4 197.8C297.8 199.9 295.7 201.1 293.7 200.5Z" fill="#F92D4F"/>
<path d="M105.4 147.3C103.4 146.8 102.2 144.7 102.7 142.6L109.5 117.3C110 115.3 112.1 114.1 114.2 114.6C116.2 115.1 117.4 117.2 116.9 119.3L110.1 144.6C109.5 146.7 107.4 147.9 105.4 147.3Z" fill="#F92D4F"/>
<path d="M39.8 176.3C37.8 176.8 35.7 175.6 35.1 173.6L28.3 148.3C27.8 146.3 29 144.2 31 143.6C33 143.1 35.1 144.3 35.7 146.3L42.5 171.6C43 173.6 41.8 175.7 39.8 176.3Z" fill="#F92D4F"/>
<path d="M58.4 226.5C56.9 225 56.9 222.6 58.4 221.1L76.9 202.6C78.4 201.1 80.8 201.1 82.3 202.6C83.8 204.1 83.8 206.5 82.3 208L63.8 226.5C62.3 228 59.8 228 58.4 226.5Z" fill="#F92D4F"/>
<path d="M307.5 147.4C305.5 147.9 303.4 146.7 302.8 144.7L296 119.4C295.5 117.4 296.7 115.3 298.7 114.7C300.7 114.2 302.8 115.4 303.4 117.4L310.2 142.7C310.7 144.8 309.5 146.9 307.5 147.4Z" fill="#F92D4F"/>
<path d="M159.7 55.5C158.2 54 158.2 51.6 159.7 50.1L178.2 31.6C179.7 30.1 182.1 30.1 183.6 31.6C185.1 33.1 185.1 35.5 183.6 37L165.1 55.5C163.6 57 161.2 57 159.7 55.5Z" fill="#F92D4F"/>
<path d="M121.5 268.8C120.5 270.6 118.1 271.2 116.3 270.2L93.6999 257.1C91.8999 256.1 91.3 253.7 92.3 251.9C93.3 250.1 95.6999 249.5 97.4999 250.5L120.1 263.6C121.9 264.6 122.6 267 121.5 268.8Z" fill="#F92D4F"/>
<path d="M299.5 104.4C297.5 104.9 295.4 103.7 294.8 101.7L288 76.4C287.5 74.4 288.7 72.3 290.7 71.7C292.7 71.2 294.8 72.4 295.4 74.4L302.2 99.6999C302.7 101.7 301.5 103.8 299.5 104.4Z" fill="white"/>
<path d="M115 101.6C114 103.4 111.6 104 109.8 103L87.1999 89.9C85.3999 88.9 84.8 86.4999 85.8 84.6999C86.8 82.8999 89.1999 82.3 90.9999 83.3L113.6 96.4C115.4 97.4 116 99.6999 115 101.6Z" fill="white"/>
<path d="M93.3 173.8C93.3 175.9 91.6 177.6 89.5 177.6H63.4C61.3 177.6 59.6 175.9 59.6 173.8C59.6 171.7 61.3 170 63.4 170H89.5C91.6 170 93.3 171.7 93.3 173.8Z" fill="white"/>
<path d="M104.8 342.2C102.8 342.7 100.7 341.5 100.1 339.5L93.3001 314.2C92.8001 312.2 94.0001 310.1 96.0001 309.5C98.0001 309 100.1 310.2 100.7 312.2L107.5 337.5C108.1 339.5 106.9 341.6 104.8 342.2Z" fill="#57A7FF"/>
<path d="M361.5 239.4C361.5 241.5 359.8 243.2 357.7 243.2H331.6C329.5 243.2 327.8 241.5 327.8 239.4C327.8 237.3 329.5 235.6 331.6 235.6H357.7C359.7 235.6 361.5 237.3 361.5 239.4Z" fill="white"/>
<path d="M253.9 295.9C251.8 295.9 250.1 294.2 250.1 292.1V266C250.1 263.9 251.8 262.2 253.9 262.2C256 262.2 257.7 263.9 257.7 266V292.1C257.7 294.2 256 295.9 253.9 295.9Z" fill="white"/>
<path d="M67.1 288.3C65.6 286.8 65.6 284.4 67.1 282.9L85.6 264.4C87.1 262.9 89.5 262.9 91 264.4C92.5 265.9 92.5 268.3 91 269.8L72.5 288.3C71 289.8 68.6 289.8 67.1 288.3Z" fill="white"/>
<path d="M233.2 57.9C232.2 59.7 229.8 60.3 228 59.3L205.4 46.2C203.6 45.2 203 42.8 204 41C205 39.2 207.4 38.6 209.2 39.6L231.8 52.7C233.7 53.8 234.3 56.1 233.2 57.9Z" fill="white"/>
<path d="M176 370.3C174 370.8 171.9 369.6 171.3 367.6L164.5 342.3C164 340.3 165.2 338.2 167.2 337.6C169.2 337.1 171.3 338.3 171.9 340.3L178.7 365.6C179.3 367.7 178.1 369.8 176 370.3Z" fill="white"/>
<path d="M322 223.6C320 224.1 317.9 222.9 317.3 220.9L310.5 195.6C310 193.6 311.2 191.5 313.2 190.9C315.2 190.4 317.3 191.6 317.9 193.6L324.7 218.9C325.2 221 324 223.1 322 223.6Z" fill="#57A7FF"/>
</svg>
